<svg xmlns="http://www.w3.org/2000/svg" width="74.5" height="88.5" viewBox="0 0 74.5 88.5"><defs><style>.a{fill:#fff;}</style></defs><title>clapperBoard</title><path class="a" d="M3.9,50.9a11,11,0,0,0,9.8-3.2,11.6,11.6,0,0,0,3.1-9.9h6.6c-1,2-2,3.8-3.1,5.7l-3.1,5.8h7.2a1.2,1.2,0,0,0,1.3-.8c1.6-3.4,3.4-6.7,5-10a1.3,1.3,0,0,1,1.4-.9h9.2L35.4,49.4h7c.6,0,.8-.2,1.1-.7,1.7-3.4,3.4-6.8,5.2-10.2a1.1,1.1,0,0,1,.8-.7h9.7L53.3,49.3h6.8a1.3,1.3,0,0,0,1.3-.7l5.1-10.2a1.2,1.2,0,0,1,1.2-.8h6.7a3.1,3.1,0,0,1,.1,1V84.2a3.9,3.9,0,0,1-4.3,4.3H8a3.8,3.8,0,0,1-4.1-4V50.9Z"/><path class="a" d="M64.3,0l5.2,10.3L57.2,16.8V12.9l.3-8.6a1,1,0,0,1,.7-1.1Z"/><path class="a" d="M25.5,32.9V25.2c0-1.6,0-3.2.1-4.7a1.2,1.2,0,0,1,.5-1l8.2-4.2h.3c0,.2.1.4.1.7-.1,3.9-.1,7.8-.2,11.6,0,.4-.1.8-.3.9Z"/><path class="a" d="M50.5,7.1v7.5c0,1.7-.1,3.4-.1,5.1a4.9,4.9,0,0,1-.3.7l-8.7,4.5a2.8,2.8,0,0,1-.1-.8c0-3.9.1-7.7.1-11.5a1.3,1.3,0,0,1,.9-1.4L50,7.4Z"/><path class="a" d="M5.7,45.5A5.7,5.7,0,0,1,0,39.8a5.8,5.8,0,0,1,11.5,0A5.7,5.7,0,0,1,5.7,45.5Z"/><path class="a" d="M8,28.7l10.8-5.5v1.2c0,3.4-.1,6.9-.1,10.3,0,1.9,0,1.9-1.9,2.7A11.8,11.8,0,0,0,8,28.7Z"/></svg>