<svg xmlns="http://www.w3.org/2000/svg" width="401.4" height="808" viewBox="0 0 401.4 808"><defs><style>.a{fill:#931d1d;stroke:#1d1d1b;stroke-miterlimit:10;}</style></defs><title>popcorn</title><path class="a" d="M19.1,465.7l-4.7-6.1C6.5,449.7,2.2,438.4,2.1,426c-.2-15.7,5-29.5,17.5-39.5,3.2-2.6,7.3-4.2,11.2-5.5s9.1,1.1,11.5,5.8a19.2,19.2,0,0,1,.8,15.2,8.6,8.6,0,0,1-6.8,6c-8.8,1.8-13.5,7.1-13.8,16.2s1.8,19.1,9.5,26.2,19.1,5.3,24.1-2.2A18.4,18.4,0,0,0,58.7,437c-.2-3.1-.7-6.1-1.1-9.1-.7-4.7-.3-9,3.3-12.6a8,8,0,0,1,10.5-1c4.5,3.2,6.2,8,6.8,13.2,1.1,9.2,1.1,18.4-1.3,27.4a11.3,11.3,0,0,0,0,2.7l29.7-9.9,1-1.9a9.8,9.8,0,0,1-3.1-1.4,44.5,44.5,0,0,1-15-26c-1.1-5.9,2.2-12.8,7-14.7a8.5,8.5,0,0,1,10.9,3.6c1,1.9,1.4,4.2,2.3,6.2,1.8,3.8,3.2,7.9,5.8,11,3.9,4.7,10.5,5,16.7,1.8a24.1,24.1,0,0,0,12.9-26.1c-1.2-6.8-.6-12.9,4.7-17.8s13.6-4,15.4,1.9a28.9,28.9,0,0,1,1.6,10.8c-.7,7.2-2.2,14.3-3.4,21.4a2.5,2.5,0,0,0-.1,1.2c0,.3.2.5.5,1.1l6.7-3.6,17.8-9.1c1.4-.8,2.1-1.5,1.5-3.4-5-14.9-2.6-29,6.9-41.1,14.8-18.8,34.7-25,58-20.4a36.8,36.8,0,0,1,9.9,4c6.2,3.5,7,9.7,2.1,14.8s-14.3,6.9-20,3.4c-9.6-5.7-19.9-3.9-27.8,4-4.2,4.2-8.3,8.8-8.9,15-.3,2.9.7,6.2,1.7,9.1s2.7,2.4,5.1,1.5c14.6-5.2,29.1-10.4,43.8-15.2,6.3-2.1,12.9-3.3,19.3-5.1,1.2-.3,2.8-.9,3.2-1.9,2.3-5,6.7-6.7,11.6-8.2a51,51,0,0,0,11.6-4.6c6.7-4.1,8.3-10.1,6.1-18.8-1.3-5.3-7.1-10.2-13.7-10.7-4.1-.3-8.3.4-12.5.4s-6,.1-8.7-.8c-5.2-1.7-6.8-7-3.9-11.7s8.5-7.5,14.4-8c15-1.3,28.7,1.9,40.6,11.4,7.4,6,12.3,13.5,12.3,23.3,0,6.2-2.5,11.9-5.9,17-.8,1.1-1.4,2.2-2.6,3.9,5.2-.3,9.6-.7,14-.8a21.4,21.4,0,0,1,6.7.4c6.7,1.9,10,5,10.7,14.7.5,8.1,1.5,16.1,2.7,24.1,1.5,10.1,3.2,20.3,5.1,30.5,1.3,7,2.9,14,4.4,21s3.7,16.7,5.5,25.1,3,14.2,4.4,21.3c2.1,11,4.4,21.9,6.1,32.9,2.2,14.3,4.3,28.7,5.7,43.1s2.3,29,2.5,43.5c.4,17.3.2,34.6-.6,51.8-.6,13.6-2.3,27.1-3.9,40.6s-3.5,25.8-5.4,38.6c-.9,5.5-1.1,11.3-5.4,15.7-1.7,1.7-3.4,2.9-6,3a682.7,682.7,0,0,0-76.9,8.7c-24.3,4-48.5,8.3-72.7,12.2-20.4,3.3-40.8,6.6-61.3,9.3-18.4,2.5-37,4.3-55.5,6.4-2.1.2-4.3.3-6.4.3-4.9.1-8.3-3.1-8.3-7.9-.1-9.6.3-19.2,0-28.8s-1-18.7-1.7-28.1c-.6-6.8-1.3-13.6-2.3-20.3s-2.5-13.6-3.9-20.4c-.6-3.2-1.2-6.4-2.1-9.6-3-10.2-5.8-20.5-9.2-30.7s-6.5-18.2-10.2-27.2c-2.9-7.2-6.4-14.1-9.6-21.2s-6.1-13.1-9.2-19.7-6.7-13.7-10-20.7-7.9-16.3-11.7-24.6S20,530.4,16.5,521.8s-7-17.7-10.4-26.5c-1.8-4.8-3.8-9.5-5.3-14.4a18.9,18.9,0,0,1-.7-7.8c.5-4.2,3.3-6.4,7.5-6.8h5.5Zm250.3,294c13-2.5,25.2-4.9,37.5-7.1,2.7-.5,4-1.7,4.3-4.3,1.7-13.8,3.7-27.6,5-41.4a442.5,442.5,0,0,0,1.7-64.1c-1-18.8-2.4-37.6-6.7-56-2.9-12.7-5.8-25.5-9.4-38.1-5.1-18.3-12.7-35.9-21.1-52.9s-18.5-36.5-27.8-54.7c-1.6-3-1.8-6,.1-9,2.8-4.8,7.2-6.8,12.6-6.4s9.1,2.3,11.3,7.2c5.1,11.7,10.4,23.3,15.6,35,6.1,13.7,12.6,27.3,18,41.3A408.1,408.1,0,0,1,330.6,578a379,379,0,0,1,7.3,59c.7,17.5.6,35-.4,52.5s-3.5,37.2-5.4,55.9c-.2,2.4.8,2.7,2.9,2.5l33.8-4.2c1.9-.2,3-.9,3.3-2.9,1.1-7.9,2.6-15.8,3.4-23.7,1.5-13.4,2.7-26.8,3.9-40.3a430.6,430.6,0,0,0,1-62.2c-.9-16.6-2.7-33.2-4.8-49.7-1.5-12.9-3.7-25.8-6.3-38.4-3.6-16.9-7.8-33.7-11.9-50.5s-9.5-36.5-13.8-54.9c-2.6-11.2-4.2-22.5-6.1-33.7-.4-2.2-1.2-3.3-3.7-2.9-11,1.7-22.1,2.9-33.1,4.9a323.8,323.8,0,0,0-94.6,32.2c-16.2,8.5-31.9,18.1-47.6,27.4-17.8,10.7-35.8,20.7-55.4,27.7A254,254,0,0,1,32,491.1l-4.9.4a32.1,32.1,0,0,0,1.1,3.6c5.2,11.7,10.2,23.6,15.8,35.2s10.7,20.9,16.1,31.3l16.2,30.6c4.9,9.3,10,18.5,14.5,28s7.9,18.1,11.8,27.2c1.3,3.2,2.6,6.4,3.7,9.7,2.2,6.4,4.5,12.7,6.3,19.2s3.5,13.6,5,20.5,2.7,13.4,3.6,20.1,1.6,13.4,2.2,20.1,1.2,13.8,1.4,20.7.3,15.8.2,23.7c0,2.7,1.1,3.3,3.5,3l40.5-5.6c7.2-1,7.2-1.1,7.5-8.5.5-13.6,1.1-27.2,1.6-40.8.6-16.1-.8-32.1-2.8-48a253.7,253.7,0,0,0-9.3-43.2c-4.2-13.3-9-26.5-16-38.8s-15.7-27.7-23.8-41.5c-6.8-11.7-14.1-23.2-21.2-34.8a15.3,15.3,0,0,1-1.8-5.2,9.3,9.3,0,0,1,9.7-10.9,13.5,13.5,0,0,1,11.6,6.4c10.1,14.7,20,29.4,30,44.1a292.7,292.7,0,0,1,26.1,45,207.7,207.7,0,0,1,14.6,43,381,381,0,0,1,6.6,43.9,392.9,392.9,0,0,1,1.4,42c-.1,12.7-1.3,25.4-2.1,38-.2,3.8-.2,3.8,3.6,3.1,12.5-2.4,24.9-4.9,37.4-7.2,3.3-.6,4.7-2.2,5-5.4,1.6-19.6,3.9-39.1,4.9-58.7a325.7,325.7,0,0,0-8.1-91.8c-5.9-25.2-14.8-49.3-28.8-71.1-7.3-11.2-16-21.5-23.9-32.3-5.1-6.8-10.2-13.6-14.8-20.8s-.1-16.1,7.6-17.9c4.7-1.1,9.1,1,12.3,5.5,5.1,7.1,9.9,14.4,15.4,21.1,10.7,13,20.6,26.4,28.7,41.2,14.2,25.9,23.2,53.6,28.5,82.6a383,383,0,0,1,5.8,67.5,508.2,508.2,0,0,1-3.9,61.6C270.3,751,269.9,755.1,269.4,759.7Z" transform="translate(0.5 1)"/><path class="a" d="M40.5,352.3c.5-17.6,7.1-33.9,21.9-46.6,17.1-14.7,37.4-9.3,47.9,8.8a43.6,43.6,0,0,1,6,23.1c-.1,6.3-2.6,11.5-8.3,14.8s-9.9.7-11.5-4.6c-.9-3-.8-6.2-1.6-9.3s-1.6-6.7-3.4-9.3c-4.5-6.7-12.5-6.1-19.6-2.4s-10,9.7-11,17.1-.7,13,1.8,19.3,8.4,9.8,15.2,8.2c8.9-2,12.2,4,13,11a16.9,16.9,0,0,1-3,11.7c-2.8,3.9-7,4.7-11.4,4.7-11-.1-18.9-6-25.3-14.4S40.9,365.2,40.5,352.3Z" transform="translate(0.5 1)"/><path class="a" d="M295.4,290.6c-2.7.1-6.9-1.2-9.5-6.5s-8.2-8.5-14.7-8.2c-10.4.5-19.3,4.5-26.1,12.4-4.1,4.8-4.9,10.4-2.4,16.4s-.9,12.1-6.9,15.4a22.3,22.3,0,0,1-4.7,2.2c-7.6,2.2-12.5-1.1-14.1-8.8-2.3-10.3,1.1-19.5,6.2-28,9.7-16.3,23.9-26.6,42.9-29.2,14.2-1.9,27.9.4,39.3,10,2.9,2.4,5.1,6,7.2,9.3s.7,6.1-1.5,8.7S303.9,290,295.4,290.6Z" transform="translate(0.5 1)"/><path class="a" d="M172.5,309.1c9.2.3,18.5,3.1,25.6,11s5.5,18.3-4.3,23.5c-6,3.2-11.8,3-15.4-4.2s-9.7-8.6-16.9-5.9a31.7,31.7,0,0,0-17.3,14.7,21,21,0,0,0-.7,19.5,16.3,16.3,0,0,1-2.3,17.3c-2.5,3.3-5.7,5.5-10.2,4.8s-6-4.3-7.3-7.9c-4.4-12-3.1-24,1-35.7s10.6-21.4,20.6-28.6C153.1,311.9,161.8,309.2,172.5,309.1Z" transform="translate(0.5 1)"/><path class="a" d="M116.8,261.5a31.3,31.3,0,0,1,33.1,28.9c.6,7.3-5.1,15.4-12.1,17.4-5,1.4-8.9-1-10.1-6.1a42,42,0,0,0-2.3-8.6c-2.4-5.4-7-7.5-12.8-6.3a18.5,18.5,0,0,0-5.2,1.6c-3,1.6-6,1.9-8.7-.1s-4-5.1-3.8-8.6c.9-11.7,8.2-16.7,18.8-18.2C114.7,261.4,115.7,261.5,116.8,261.5Z" transform="translate(0.5 1)"/><path class="a" d="M167.2,274.7c.4-18.3,6.6-31.8,17.8-43,3.7-3.7,7.9-6.1,13.5-5.4a7.2,7.2,0,0,1,6.4,7.9c-.2,4.8-3,8.1-6,11.6a59.1,59.1,0,0,0-8.3,12.3c-2.7,5.3-.9,10.6,3.2,14.5a10.6,10.6,0,0,1,1.5,13.2c-3.3,5.6-7.8,9.9-14.8,9.6a10.2,10.2,0,0,1-5.9-2.6C168.8,287.3,167.4,280,167.2,274.7Z" transform="translate(0.5 1)"/><polygon class="a" points="81.8 546.5 72 533.4 55.7 534.1 65.1 520.7 59.5 505.4 75.1 510.2 87.9 500.1 88.2 516.4 101.8 525.5 86.3 530.8 81.8 546.5"/><polygon class="a" points="194 585.2 191.8 575.9 182.8 572.4 191.1 567.4 191.6 557.7 198.9 564 208.3 561.5 204.5 570.5 209.8 578.6 200.1 577.8 194 585.2"/><polygon class="a" points="112.5 653.4 126 643.6 125.5 626.9 139 636.7 154.7 631.2 149.6 647 159.7 660.2 143 660.2 133.6 673.9 128.4 658.1 112.5 653.4"/><polygon class="a" points="337 567.5 349 565.5 354.2 554.5 359.8 565.4 371.8 567 363.2 575.6 365.5 587.5 354.6 582 343.9 587.9 345.8 575.8 337 567.5"/><polygon class="a" points="282.7 678 289.6 679.8 295.1 675.1 295.5 682.2 301.7 685.9 295 688.6 293.4 695.5 288.8 690 281.7 690.7 285.5 684.6 282.7 678"/><polygon class="a" points="256 477.7 257.8 490 268.9 495.5 257.8 500.9 256 513.2 247.4 504.3 235.2 506.4 240.9 495.5 235.2 484.5 247.4 486.6 256 477.7"/><polygon class="a" points="226.6 107.9 261.5 82.6 260.4 39.5 295.2 64.9 335.9 50.5 322.5 91.5 348.7 125.7 305.7 125.7 281.2 161.2 267.9 120.2 226.6 107.9"/><polygon class="a" points="102.2 1 121.3 17.6 145.8 11.3 135.9 34.6 149.5 55.9 124.3 53.7 108.2 73.2 102.5 48.6 79 39.3 100.7 26.3 102.2 1"/><polygon class="a" points="200.6 4.3 202.8 13.9 212 17.5 203.6 22.6 203 32.5 195.5 26 186 28.5 189.8 19.4 184.5 11.1 194.3 11.9 200.6 4.3"/></svg>