<svg xmlns="http://www.w3.org/2000/svg" width="14.1cm" height="20.5cm" viewBox="0 0 400.4 580.2"><defs><style>.a{fill:#fff;}</style></defs><title>popcorn</title><path class="a" d="M19.1,239.5l-4.7-6.1c-7.9-9.9-12.2-21.2-12.3-33.6-.2-15.7,5-29.5,17.5-39.5,3.2-2.6,7.3-4.2,11.2-5.5s9.1,1.1,11.5,5.8a19.2,19.2,0,0,1,.8,15.2,8.6,8.6,0,0,1-6.8,6c-8.8,1.8-13.5,7.1-13.8,16.2s1.8,19.2,9.5,26.2,19.1,5.3,24.1-2.2a18.4,18.4,0,0,0,2.6-11.2c-.2-3.1-.7-6.1-1.1-9.1-.7-4.7-.3-9,3.3-12.6a8.1,8.1,0,0,1,10.5-1c4.5,3.2,6.2,8,6.8,13.2,1.1,9.2,1.1,18.4-1.3,27.4a11.4,11.4,0,0,0,0,2.7l29.7-9.9,1-1.9a9.8,9.8,0,0,1-3.1-1.4,44.5,44.5,0,0,1-15-26c-1.1-5.9,2.2-12.8,7-14.7a8.5,8.5,0,0,1,10.9,3.6c1,1.9,1.4,4.2,2.3,6.2,1.8,3.8,3.2,7.9,5.8,11,3.9,4.7,10.5,5,16.7,1.8A24.1,24.1,0,0,0,145.1,174c-1.2-6.8-.6-12.9,4.7-17.8s13.6-4,15.4,1.9a28.9,28.9,0,0,1,1.6,10.8c-.7,7.2-2.2,14.3-3.4,21.4a2.5,2.5,0,0,0-.1,1.2c0,.3.2.5.5,1.1l6.7-3.6,17.8-9.1c1.4-.8,2.1-1.5,1.5-3.4-5-14.9-2.6-29,6.9-41.1,14.8-18.8,34.7-25,58-20.4a36.8,36.8,0,0,1,9.9,4c6.2,3.5,7,9.7,2.1,14.8s-14.3,6.9-20,3.4c-9.6-5.7-19.9-3.9-27.8,4-4.2,4.3-8.3,8.8-8.9,15-.3,2.9.7,6.2,1.7,9.1s2.7,2.4,5.1,1.5c14.6-5.2,29.1-10.4,43.8-15.2,6.3-2.1,12.9-3.3,19.3-5.1,1.2-.3,2.8-.9,3.2-1.9,2.3-5,6.7-6.7,11.6-8.2s8.1-2.4,11.6-4.6c6.7-4.1,8.3-10,6.1-18.8-1.3-5.3-7.1-10.2-13.7-10.7-4.1-.3-8.3.4-12.5.4s-6,.1-8.7-.8c-5.2-1.7-6.8-7-3.9-11.7s8.5-7.5,14.4-8c15-1.3,28.7,1.9,40.6,11.4,7.4,6,12.3,13.5,12.3,23.3,0,6.3-2.5,11.9-5.9,17-.8,1.1-1.4,2.2-2.6,3.9,5.2-.3,9.6-.7,14-.8a24.9,24.9,0,0,1,6.7.4c6.7,1.9,10,5,10.7,14.7.5,8.1,1.5,16.1,2.7,24.1,1.5,10.2,3.2,20.3,5.1,30.5,1.3,7,2.9,14,4.4,21s3.7,16.7,5.5,25.1,3,14.2,4.4,21.3c2.1,11,4.4,21.9,6.1,32.9,2.2,14.3,4.3,28.7,5.7,43.1s2.3,29,2.5,43.5c.4,17.3.2,34.6-.6,51.8-.6,13.6-2.3,27.1-3.9,40.6s-3.5,25.8-5.4,38.6c-.9,5.5-1.1,11.3-5.4,15.7a9,9,0,0,1-6,3.1A706.5,706.5,0,0,0,302,552c-24.3,4-48.5,8.3-72.7,12.2-20.4,3.3-40.8,6.6-61.3,9.3-18.4,2.5-37,4.3-55.5,6.4-2.1.2-4.3.3-6.4.3-4.9.1-8.3-3.1-8.3-7.9-.1-9.6.3-19.2,0-28.8s-1-18.7-1.7-28.1c-.6-6.8-1.3-13.6-2.3-20.3s-2.5-13.6-3.9-20.4c-.6-3.2-1.2-6.4-2.1-9.6-3-10.2-5.8-20.5-9.2-30.7s-6.5-18.2-10.2-27.2C65.5,400,62,393.1,58.8,386s-6.1-13.1-9.2-19.7-6.7-13.7-10-20.6S31.7,329.3,27.9,321,20,304.2,16.5,295.6s-7-17.7-10.4-26.5c-1.8-4.8-3.8-9.5-5.3-14.4a18.9,18.9,0,0,1-.7-7.8c.5-4.2,3.3-6.4,7.5-6.8h5.5Zm250.3,294c13-2.5,25.2-4.9,37.5-7.1,2.7-.5,4-1.7,4.3-4.3,1.7-13.8,3.7-27.6,5-41.4a442.5,442.5,0,0,0,1.7-64.1c-1-18.8-2.4-37.6-6.7-56-2.9-12.7-5.8-25.5-9.4-38.1-5.1-18.3-12.7-35.8-21.1-52.9s-18.5-36.4-27.8-54.7a8.4,8.4,0,0,1,.1-9c2.8-4.8,7.2-6.8,12.6-6.4s9.1,2.3,11.3,7.2c5.1,11.7,10.4,23.3,15.6,35,6.1,13.7,12.6,27.3,18,41.3a408.1,408.1,0,0,1,20.1,68.8,379,379,0,0,1,7.3,59c.7,17.5.6,35-.4,52.5s-3.5,37.2-5.4,55.9c-.2,2.4.8,2.8,2.9,2.5l33.8-4.2c1.9-.2,3-.9,3.3-2.9,1.1-7.9,2.6-15.8,3.4-23.7,1.5-13.4,2.7-26.8,3.9-40.3a430.6,430.6,0,0,0,1-62.2c-.9-16.6-2.7-33.2-4.8-49.7-1.5-12.9-3.7-25.7-6.3-38.4-3.6-16.9-7.8-33.7-11.9-50.5s-9.5-36.5-13.8-54.9c-2.6-11.1-4.2-22.5-6.1-33.7-.4-2.2-1.2-3.3-3.7-2.9-11,1.7-22.1,2.9-33.1,4.9a323.8,323.8,0,0,0-94.6,32.2c-16.2,8.5-31.9,18.1-47.6,27.4-17.8,10.7-35.8,20.7-55.4,27.7A254,254,0,0,1,32,264.9l-4.9.4a32.1,32.1,0,0,0,1.1,3.6c5.2,11.7,10.2,23.6,15.8,35.2S54.7,325,60.1,335.4L76.3,366c4.9,9.3,10,18.5,14.5,28s7.9,18.1,11.8,27.2c1.3,3.2,2.6,6.4,3.7,9.7,2.2,6.4,4.5,12.7,6.3,19.2s3.5,13.6,5,20.5,2.7,13.4,3.6,20.1,1.6,13.4,2.2,20.1,1.2,13.8,1.4,20.7.3,15.8.2,23.7c0,2.7,1.1,3.3,3.5,3l40.5-5.6c7.2-1,7.2-1.1,7.5-8.5.5-13.6,1.1-27.2,1.6-40.8.6-16.1-.8-32.1-2.8-48a253.7,253.7,0,0,0-9.3-43.2c-4.2-13.3-9-26.5-16-38.7-7.9-13.9-15.7-27.8-23.8-41.6-6.8-11.7-14.1-23.2-21.2-34.8a15.3,15.3,0,0,1-1.8-5.2,9.3,9.3,0,0,1,9.7-10.9,13.8,13.8,0,0,1,11.6,6.4c10.1,14.7,20,29.4,30,44.1a292.7,292.7,0,0,1,26.1,45,207.7,207.7,0,0,1,14.6,43,381,381,0,0,1,6.6,43.9,392.9,392.9,0,0,1,1.4,42c-.1,12.7-1.3,25.4-2.1,38-.2,3.8-.2,3.9,3.6,3.1,12.5-2.4,24.9-4.9,37.4-7.2,3.3-.6,4.7-2.2,5-5.4,1.6-19.6,3.9-39.1,4.9-58.7a325.7,325.7,0,0,0-8.1-91.8c-5.9-25.2-14.8-49.3-28.8-71.1-7.3-11.2-16-21.5-23.9-32.3-5.1-6.8-10.2-13.6-14.8-20.8s-.1-16.1,7.6-17.9c4.7-1.1,9.1,1,12.3,5.5,5.1,7.1,9.9,14.4,15.4,21.1,10.7,13,20.6,26.5,28.7,41.2,14.2,26,23.2,53.6,28.5,82.6a383,383,0,0,1,5.8,67.5,508.2,508.2,0,0,1-3.9,61.6C270.3,524.8,269.9,528.9,269.4,533.5Z"/><path class="a" d="M40.5,126.1c.5-17.6,7.1-33.9,21.9-46.6,17.1-14.7,37.4-9.3,47.9,8.8a43.6,43.6,0,0,1,6,23.1c-.1,6.3-2.6,11.5-8.3,14.8s-9.9.7-11.5-4.6c-.9-3-.8-6.2-1.6-9.3s-1.6-6.7-3.4-9.3C87,96.3,79,96.9,71.9,100.6s-10,9.7-11,17.1-.7,13,1.8,19.3,8.4,9.8,15.2,8.2c8.9-2,12.2,4,13,11a16.9,16.9,0,0,1-3,11.7c-2.8,3.9-7,4.7-11.4,4.7-11-.1-18.9-6-25.3-14.4S40.9,139,40.5,126.1Z"/><path class="a" d="M295.4,64.4c-2.7.1-6.9-1.2-9.5-6.5s-8.2-8.5-14.7-8.2c-10.4.5-19.3,4.5-26.1,12.5-4.1,4.7-4.9,10.3-2.4,16.3s-.9,12.1-6.9,15.4a22.3,22.3,0,0,1-4.7,2.2c-7.6,2.2-12.5-1.1-14.1-8.8-2.3-10.3,1.1-19.5,6.2-28,9.7-16.2,23.9-26.6,42.9-29.1,14.2-2,27.9.3,39.3,9.9,2.9,2.4,5.1,6,7.2,9.3s.7,6.1-1.5,8.7S303.9,63.8,295.4,64.4Z"/><path class="a" d="M172.5,82.9c9.2.3,18.5,3.2,25.6,11.1s5.5,18.2-4.3,23.4c-6,3.2-11.8,3-15.4-4.2s-9.7-8.6-16.9-5.9A31.7,31.7,0,0,0,144.2,122a21,21,0,0,0-.7,19.5,16.3,16.3,0,0,1-2.3,17.3c-2.5,3.3-5.7,5.5-10.2,4.8s-6-4.3-7.3-7.9c-4.4-12-3.1-24,1-35.7s10.6-21.4,20.6-28.6C153.1,85.7,161.8,83.1,172.5,82.9Z"/><path class="a" d="M116.8,35.3a31.3,31.3,0,0,1,33.1,28.9c.6,7.3-5.1,15.4-12.1,17.4-5,1.4-8.9-1-10.1-6.1a42,42,0,0,0-2.3-8.6c-2.4-5.4-7-7.5-12.8-6.3a18.5,18.5,0,0,0-5.2,1.6c-3,1.6-6,1.9-8.7-.1s-4-5.1-3.8-8.6c.9-11.7,8.2-16.7,18.8-18.2Z"/><path class="a" d="M167.2,48.5c.4-18.3,6.6-31.8,17.8-43,3.7-3.7,7.9-6.1,13.5-5.4A7.2,7.2,0,0,1,204.9,8c-.2,4.8-3,8.1-6,11.6a59.1,59.1,0,0,0-8.3,12.3c-2.7,5.3-.9,10.6,3.2,14.5a10.6,10.6,0,0,1,1.5,13.2c-3.3,5.6-7.8,9.9-14.8,9.6a10.2,10.2,0,0,1-5.9-2.6C168.8,61.1,167.4,53.8,167.2,48.5Z"/><polygon class="a" points="81.3 319.3 71.5 306.2 55.2 306.8 64.6 293.5 59 278.1 74.6 283 87.4 272.8 87.7 289.2 101.3 298.3 85.8 303.5 81.3 319.3"/><polygon class="a" points="193.5 358 191.3 348.6 182.3 345.1 190.6 340.1 191.1 330.5 198.4 336.8 207.8 334.3 204 343.2 209.3 351.3 199.6 350.5 193.5 358"/><polygon class="a" points="112 426.1 125.5 416.3 125 399.7 138.5 409.5 154.2 403.9 149.1 419.8 159.2 433 142.5 433 133.1 446.7 127.9 430.9 112 426.1"/><polygon class="a" points="336.5 340.2 348.5 338.3 353.7 327.3 359.3 338.1 371.3 339.7 362.7 348.3 365 360.3 354.1 354.8 343.4 360.6 345.3 348.6 336.5 340.2"/><polygon class="a" points="282.2 450.8 289.1 452.5 294.6 447.8 295 455 301.2 458.7 294.5 461.3 292.9 468.3 288.3 462.8 281.2 463.4 285 457.4 282.2 450.8"/><polygon class="a" points="255.5 250.5 257.3 262.7 268.4 268.2 257.3 273.7 255.5 286 246.9 277.1 234.7 279.2 240.4 268.2 234.7 257.3 246.9 259.4 255.5 250.5"/></svg>